<svg version="1.0" xmlns="http://www.w3.org/2000/svg"
 width="1537.000000pt" height="341.000000pt" viewBox="0 0 1537.000000 341.000000"
 preserveAspectRatio="xMidYMid meet">

<g transform="translate(0.000000,341.000000) scale(0.100000,-0.100000)"
fill="#000000" stroke="none">
<path d="M4582 2990 c-400 -51 -711 -301 -778 -625 -34 -165 -5 -390 69 -530
40 -76 153 -191 232 -237 154 -89 274 -120 593 -153 136 -14 273 -32 304 -40
117 -30 191 -84 235 -173 25 -51 28 -68 28 -157 0 -124 -23 -184 -96 -249 -81
-73 -200 -106 -382 -106 -128 0 -233 22 -333 70 -142 68 -229 167 -255 290 -6
28 -18 54 -28 59 -16 9 -371 -4 -400 -14 -19 -7 -8 -129 20 -220 66 -215 205
-373 424 -480 204 -99 398 -141 615 -132 470 20 806 248 891 605 18 74 20 109
16 232 -5 163 -19 227 -74 340 -52 108 -170 223 -284 279 -156 75 -227 90
-619 131 -251 27 -326 50 -412 128 -62 56 -88 120 -88 218 0 66 4 89 26 132
50 100 166 179 307 209 106 22 313 14 388 -16 120 -46 188 -114 233 -229 l22
-57 190 2 c237 3 234 3 234 52 0 60 -36 186 -75 260 -83 157 -260 299 -455
364 -135 45 -389 67 -548 47z"/>
<path d="M313 2973 c-10 -4 -13 -222 -13 -1046 0 -977 1 -1048 19 -1132 43
-210 138 -329 312 -394 255 -95 737 -117 1009 -45 173 45 288 112 406 237 153
160 210 317 245 668 16 161 -2 855 -26 989 -33 184 -99 320 -218 446 -153 163
-327 244 -582 274 -90 10 -1128 13 -1152 3z m1137 -447 c175 -57 281 -165 324
-332 47 -183 48 -889 1 -1092 -40 -171 -148 -282 -330 -339 -88 -27 -338 -24
-450 6 -107 29 -146 56 -182 128 l-28 58 -3 757 c-1 417 1 772 6 790 5 22 16
35 33 40 13 4 148 6 299 4 231 -2 284 -6 330 -20z"/>
<path d="M2816 2964 c-14 -14 -16 -147 -16 -1319 0 -1172 2 -1305 16 -1319 23
-24 435 -24 458 0 14 14 16 147 16 1319 0 1172 -2 1305 -16 1319 -13 14 -48
16 -229 16 -181 0 -216 -2 -229 -16z"/>
<path d="M6670 2969 c-203 -24 -324 -93 -389 -223 -69 -138 -65 -61 -69 -1292
-2 -1009 -1 -1113 13 -1128 24 -24 436 -24 459 0 14 14 16 72 16 495 0 447 1
480 18 487 9 4 99 7 199 7 169 0 184 -1 202 -20 10 -11 117 -207 236 -435 283
-542 282 -539 308 -545 12 -3 132 -4 267 -3 219 3 245 5 248 20 2 9 -30 76
-71 150 -72 129 -268 481 -409 738 -38 69 -70 136 -71 149 -2 21 9 31 71 65
99 55 161 107 233 196 100 123 152 246 171 412 20 172 -21 379 -107 535 -53
95 -206 246 -300 295 -173 90 -289 108 -670 107 -154 -1 -314 -5 -355 -10z
m663 -434 c123 -32 193 -89 248 -201 33 -66 34 -72 34 -189 0 -102 -4 -129
-23 -178 -46 -113 -138 -200 -252 -235 -77 -24 -615 -26 -630 -2 -6 9 -10 148
-10 330 0 310 1 316 24 365 50 107 101 124 361 125 138 0 207 -4 248 -15z"/>
<path d="M8632 2972 c-10 -7 -12 -195 -10 -968 l3 -959 23 -80 c77 -265 236
-448 495 -570 410 -194 953 -112 1252 189 108 108 172 218 217 373 l23 78 3
964 c2 775 0 966 -10 973 -7 4 -108 8 -225 8 -179 0 -214 -2 -227 -16 -14 -14
-16 -111 -16 -918 0 -573 -4 -923 -10 -957 -44 -230 -240 -369 -519 -369 -267
1 -443 117 -508 336 -16 54 -18 138 -21 984 -2 708 -6 926 -15 932 -16 10
-439 10 -455 0z"/>
<path d="M11256 2964 c-14 -14 -16 -147 -16 -1319 0 -1172 2 -1305 16 -1319
13 -14 48 -16 227 -16 117 0 217 4 224 8 9 6 13 111 15 418 2 330 6 414 17
427 12 15 47 17 315 17 405 0 516 17 691 108 106 55 239 191 293 302 76 155
108 339 98 555 -12 270 -83 453 -230 600 -94 92 -159 133 -277 174 -157 55
-240 61 -827 61 -469 0 -532 -2 -546 -16z m1073 -425 c175 -28 277 -135 313
-329 16 -87 4 -283 -22 -358 -42 -121 -126 -195 -252 -223 -87 -19 -611 -20
-630 -1 -10 10 -14 102 -16 420 -2 224 1 425 5 447 7 30 15 41 33 46 40 11
499 10 569 -2z"/>
<path d="M14205 2973 c-214 -26 -336 -76 -447 -181 -71 -67 -110 -128 -149
-227 -53 -138 -79 -365 -43 -379 26 -10 354 -7 373 4 14 7 20 27 25 86 9 100
40 180 86 224 53 51 120 70 251 70 184 0 288 -50 353 -171 33 -59 37 -116 23
-269 l-8 -85 172 -83 c194 -94 183 -95 218 1 50 137 66 375 35 525 -44 217
-183 369 -399 438 -135 43 -354 64 -490 47z"/>
<path d="M14306 1882 c-6 -11 -66 -302 -66 -324 0 -14 27 -31 106 -68 160 -75
217 -113 274 -184 66 -84 82 -130 83 -241 0 -77 -3 -99 -25 -147 -35 -75 -98
-141 -167 -175 -48 -24 -71 -28 -162 -31 -135 -5 -197 11 -263 69 -54 48 -79
92 -95 169 -6 30 -17 58 -24 62 -7 4 -98 8 -203 8 -157 0 -194 -3 -204 -15 -9
-11 -10 -33 -2 -93 49 -362 268 -565 650 -603 306 -30 571 44 742 207 86 83
133 159 172 284 20 66 23 95 23 235 0 136 -4 172 -23 239 -47 165 -110 252
-242 339 -84 55 -527 277 -552 277 -9 0 -19 -4 -22 -8z"/>
</g>
</svg>
